<svg xmlns="http://www.w3.org/2000/svg" width="520.5" height="981" viewBox="0 0 520.5 981">
  <title>Asset 3</title>
  <g id="f7bd479d-084b-4b63-aa14-a87818ef6f02" data-name="Layer 2">
    <g id="bd2b2f06-40f8-484f-84f0-5bbaa5f9515e" data-name="Layer 1">
      <g>
        <g>
          <rect x="430" y="0.5" width="34" height="196" style="fill: #f9b546"/>
          <path d="M429.5,0h35V197h-35Zm34,1h-33V196h33Z" style="fill: #a97c50"/>
        </g>
        <g>
          <rect x="430" y="196.5" width="34" height="196" style="fill: #e8a23d"/>
          <path d="M429.5,196h35V393h-35Zm34,1h-33V392h33Z" style="fill: #a97c50"/>
        </g>
        <g>
          <rect x="430" y="392.5" width="34" height="196" style="fill: #f9b546"/>
          <path d="M429.5,392h35V589h-35Zm34,1h-33V588h33Z" style="fill: #a97c50"/>
        </g>
        <g>
          <rect x="430" y="588.5" width="34" height="196" style="fill: #c4812e"/>
          <path d="M429.5,588h35V785h-35Zm34,1h-33V784h33Z" style="fill: #a97c50"/>
        </g>
        <g>
          <rect x="430" y="784.5" width="34" height="196" style="fill: #e8a23d"/>
          <path d="M429.5,784h35V981h-35Zm34,1h-33V980h33Z" style="fill: #a97c50"/>
        </g>
        <g>
          <rect x="396" y="686.5" width="34" height="196" style="fill: #f9b546"/>
          <path d="M395.5,686h35V883h-35Zm34,1h-33V882h33Z" style="fill: #a97c50"/>
        </g>
        <g>
          <rect x="396" y="490.5" width="34" height="196" style="fill: #e8a23d"/>
          <path d="M395.5,490h35V687h-35Zm34,1h-33V686h33Z" style="fill: #a97c50"/>
        </g>
        <g>
          <rect x="396" y="294.5" width="34" height="196" style="fill: #f9b546"/>
          <path d="M395.5,294h35V491h-35Zm34,1h-33V490h33Z" style="fill: #a97c50"/>
        </g>
        <g>
          <rect x="396" y="98.5" width="34" height="196" style="fill: #e8a23d"/>
          <path d="M395.5,98h35V295h-35Zm34,1h-33V294h33Z" style="fill: #a97c50"/>
        </g>
        <g>
          <rect x="362" y="784.5" width="34" height="196" style="fill: #f9b546"/>
          <path d="M361.5,784h35V981h-35Zm34,1h-33V980h33Z" style="fill: #a97c50"/>
        </g>
        <g>
          <rect x="362" y="588.5" width="34" height="196" style="fill: #e8a23d"/>
          <path d="M361.5,588h35V785h-35Zm34,1h-33V784h33Z" style="fill: #a97c50"/>
        </g>
        <g>
          <rect x="362" y="392.5" width="34" height="196" style="fill: #f9b546"/>
          <path d="M361.5,392h35V589h-35Zm34,1h-33V588h33Z" style="fill: #a97c50"/>
        </g>
        <g>
          <rect x="362" y="196.5" width="34" height="196" style="fill: #f9b546"/>
          <path d="M361.5,196h35V393h-35Zm34,1h-33V392h33Z" style="fill: #a97c50"/>
        </g>
        <g>
          <rect x="362" y="0.5" width="34" height="196" style="fill: #e8a23d"/>
          <path d="M361.5,0h35V197h-35Zm34,1h-33V196h33Z" style="fill: #a97c50"/>
        </g>
        <g>
          <rect x="328" y="686.5" width="34" height="196" style="fill: #e8a23d"/>
          <path d="M327.5,686h35V883h-35Zm34,1h-33V882h33Z" style="fill: #a97c50"/>
        </g>
        <g>
          <rect x="328" y="490.5" width="34" height="196" style="fill: #f9b546"/>
          <path d="M327.5,490h35V687h-35Zm34,1h-33V686h33Z" style="fill: #a97c50"/>
        </g>
        <g>
          <rect x="328" y="294.5" width="34" height="196" style="fill: #d89335"/>
          <path d="M327.5,294h35V491h-35Zm34,1h-33V490h33Z" style="fill: #a97c50"/>
        </g>
        <g>
          <rect x="328" y="98.5" width="34" height="196" style="fill: #e8a23d"/>
          <path d="M327.5,98h35V295h-35Zm34,1h-33V294h33Z" style="fill: #a97c50"/>
        </g>
        <g>
          <rect x="294" y="0.5" width="34" height="196" style="fill: #f9b546"/>
          <path d="M293.5,0h35V197h-35Zm34,1h-33V196h33Z" style="fill: #a97c50"/>
        </g>
        <g>
          <rect x="294" y="196.5" width="34" height="196" style="fill: #e8a23d"/>
          <path d="M293.5,196h35V393h-35Zm34,1h-33V392h33Z" style="fill: #a97c50"/>
        </g>
        <g>
          <rect x="294" y="392.5" width="34" height="196" style="fill: #f9b546"/>
          <path d="M293.5,392h35V589h-35Zm34,1h-33V588h33Z" style="fill: #a97c50"/>
        </g>
        <g>
          <rect x="294" y="588.5" width="34" height="196" style="fill: #d89335"/>
          <path d="M293.5,588h35V785h-35Zm34,1h-33V784h33Z" style="fill: #a97c50"/>
        </g>
        <g>
          <rect x="294" y="784.5" width="34" height="196" style="fill: #e8a23d"/>
          <path d="M293.5,784h35V981h-35Zm34,1h-33V980h33Z" style="fill: #a97c50"/>
        </g>
        <g>
          <rect x="260" y="686.5" width="34" height="196" style="fill: #f9b546"/>
          <path d="M259.5,686h35V883h-35Zm34,1h-33V882h33Z" style="fill: #a97c50"/>
        </g>
        <g>
          <rect x="260" y="490.5" width="34" height="196" style="fill: #e8a23d"/>
          <path d="M259.5,490h35V687h-35Zm34,1h-33V686h33Z" style="fill: #a97c50"/>
        </g>
        <g>
          <rect x="260" y="294.5" width="34" height="196" style="fill: #f9b546"/>
          <path d="M259.5,294h35V491h-35Zm34,1h-33V490h33Z" style="fill: #a97c50"/>
        </g>
        <g>
          <rect x="260" y="98.5" width="34" height="196" style="fill: #e8a23d"/>
          <path d="M259.5,98h35V295h-35Zm34,1h-33V294h33Z" style="fill: #a97c50"/>
        </g>
        <g>
          <rect x="226" y="784.5" width="34" height="196" style="fill: #f9b546"/>
          <path d="M225.5,784h35V981h-35Zm34,1h-33V980h33Z" style="fill: #a97c50"/>
        </g>
        <g>
          <rect x="226" y="588.5" width="34" height="196" style="fill: #e8a23d"/>
          <path d="M225.5,588h35V785h-35Zm34,1h-33V784h33Z" style="fill: #a97c50"/>
        </g>
        <g>
          <rect x="226" y="392.5" width="34" height="196" style="fill: #f9b546"/>
          <path d="M225.5,392h35V589h-35Zm34,1h-33V588h33Z" style="fill: #a97c50"/>
        </g>
        <g>
          <rect x="226" y="196.5" width="34" height="196" style="fill: #f9b546"/>
          <path d="M225.5,196h35V393h-35Zm34,1h-33V392h33Z" style="fill: #a97c50"/>
        </g>
        <g>
          <rect x="226" y="0.5" width="34" height="196" style="fill: #e8a23d"/>
          <path d="M225.5,0h35V197h-35Zm34,1h-33V196h33Z" style="fill: #a97c50"/>
        </g>
        <g>
          <rect x="192" y="686.5" width="34" height="196" style="fill: #e8a23d"/>
          <path d="M191.5,686h35V883h-35Zm34,1h-33V882h33Z" style="fill: #a97c50"/>
        </g>
        <g>
          <rect x="192" y="490.5" width="34" height="196" style="fill: #f9b546"/>
          <path d="M191.5,490h35V687h-35Zm34,1h-33V686h33Z" style="fill: #a97c50"/>
        </g>
        <g>
          <rect x="192" y="294.5" width="34" height="196" style="fill: #d89335"/>
          <path d="M191.5,294h35V491h-35Zm34,1h-33V490h33Z" style="fill: #a97c50"/>
        </g>
        <g>
          <rect x="192" y="98.5" width="34" height="196" style="fill: #e8a23d"/>
          <path d="M191.5,98h35V295h-35Zm34,1h-33V294h33Z" style="fill: #a97c50"/>
        </g>
        <g>
          <rect x="56" y="784.5" width="34" height="196" style="fill: #f9b546"/>
          <path d="M55.5,784h35V981h-35Zm34,1h-33V980h33Z" style="fill: #a97c50"/>
        </g>
        <g>
          <rect x="56" y="588.5" width="34" height="196" style="fill: #e8a23d"/>
          <path d="M55.5,588h35V785h-35Zm34,1h-33V784h33Z" style="fill: #a97c50"/>
        </g>
        <g>
          <rect x="56" y="392.5" width="34" height="196" style="fill: #f9b546"/>
          <path d="M55.5,392h35V589h-35Zm34,1h-33V588h33Z" style="fill: #a97c50"/>
        </g>
        <g>
          <rect x="56" y="196.5" width="34" height="196" style="fill: #c4812e"/>
          <path d="M55.5,196h35V393h-35Zm34,1h-33V392h33Z" style="fill: #a97c50"/>
        </g>
        <g>
          <rect x="56" y="0.5" width="34" height="196" style="fill: #e8a23d"/>
          <path d="M55.5,0h35V197h-35Zm34,1h-33V196h33Z" style="fill: #a97c50"/>
        </g>
        <g>
          <rect x="90" y="98.5" width="34" height="196" style="fill: #f9b546"/>
          <path d="M89.5,98h35V295h-35Zm34,1h-33V294h33Z" style="fill: #a97c50"/>
        </g>
        <g>
          <rect x="90" y="294.5" width="34" height="196" style="fill: #e8a23d"/>
          <path d="M89.5,294h35V491h-35Zm34,1h-33V490h33Z" style="fill: #a97c50"/>
        </g>
        <g>
          <rect x="90" y="490.5" width="34" height="196" style="fill: #f9b546"/>
          <path d="M89.5,490h35V687h-35Zm34,1h-33V686h33Z" style="fill: #a97c50"/>
        </g>
        <g>
          <rect x="90" y="686.5" width="34" height="196" style="fill: #e8a23d"/>
          <path d="M89.5,686h35V883h-35Zm34,1h-33V882h33Z" style="fill: #a97c50"/>
        </g>
        <g>
          <rect x="124" y="0.5" width="34" height="196" style="fill: #f9b546"/>
          <path d="M123.5,0h35V197h-35Zm34,1h-33V196h33Z" style="fill: #a97c50"/>
        </g>
        <g>
          <rect x="124" y="196.5" width="34" height="196" style="fill: #e8a23d"/>
          <path d="M123.5,196h35V393h-35Zm34,1h-33V392h33Z" style="fill: #a97c50"/>
        </g>
        <g>
          <rect x="124" y="392.5" width="34" height="196" style="fill: #f9b546"/>
          <path d="M123.5,392h35V589h-35Zm34,1h-33V588h33Z" style="fill: #a97c50"/>
        </g>
        <g>
          <rect x="124" y="588.5" width="34" height="196" style="fill: #f9b546"/>
          <path d="M123.5,588h35V785h-35Zm34,1h-33V784h33Z" style="fill: #a97c50"/>
        </g>
        <g>
          <rect x="124" y="784.5" width="34" height="196" style="fill: #e8a23d"/>
          <path d="M123.5,784h35V981h-35Zm34,1h-33V980h33Z" style="fill: #a97c50"/>
        </g>
        <g>
          <rect x="158" y="98.5" width="34" height="196" style="fill: #e8a23d"/>
          <path d="M157.5,98h35V295h-35Zm34,1h-33V294h33Z" style="fill: #a97c50"/>
        </g>
        <g>
          <rect x="158" y="294.5" width="34" height="196" style="fill: #f9b546"/>
          <path d="M157.5,294h35V491h-35Zm34,1h-33V490h33Z" style="fill: #a97c50"/>
        </g>
        <g>
          <rect x="158" y="490.5" width="34" height="196" style="fill: #d89335"/>
          <path d="M157.5,490h35V687h-35Zm34,1h-33V686h33Z" style="fill: #a97c50"/>
        </g>
        <g>
          <rect x="158" y="686.5" width="34" height="196" style="fill: #e8a23d"/>
          <path d="M157.5,686h35V883h-35Zm34,1h-33V882h33Z" style="fill: #a97c50"/>
        </g>
        <g>
          <rect x="396" y="882.5" width="34" height="98" style="fill: #e8a23d"/>
          <path d="M395.5,882h35v99h-35Zm34,1h-33v97h33Z" style="fill: #a97c50"/>
        </g>
        <g>
          <rect x="328" y="882.5" width="34" height="98" style="fill: #f9b546"/>
          <path d="M327.5,882h35v99h-35Zm34,1h-33v97h33Z" style="fill: #a97c50"/>
        </g>
        <g>
          <rect x="260" y="882.5" width="34" height="98" style="fill: #e8a23d"/>
          <path d="M259.5,882h35v99h-35Zm34,1h-33v97h33Z" style="fill: #a97c50"/>
        </g>
        <g>
          <rect x="192" y="882.5" width="34" height="98" style="fill: #f9b546"/>
          <path d="M191.5,882h35v99h-35Zm34,1h-33v97h33Z" style="fill: #a97c50"/>
        </g>
        <g>
          <rect x="90" y="882.5" width="34" height="98" style="fill: #d89335"/>
          <path d="M89.5,882h35v99h-35Zm34,1h-33v97h33Z" style="fill: #a97c50"/>
        </g>
        <g>
          <rect x="158" y="882.5" width="34" height="98" style="fill: #d89335"/>
          <path d="M157.5,882h35v99h-35Zm34,1h-33v97h33Z" style="fill: #a97c50"/>
        </g>
        <g>
          <rect x="396" y="0.5" width="34" height="98" style="fill: #d89335"/>
          <path d="M395.5,0h35V99h-35Zm34,1h-33V98h33Z" style="fill: #a97c50"/>
        </g>
        <g>
          <rect x="328" y="0.5" width="34" height="98" style="fill: #d89335"/>
          <path d="M327.5,0h35V99h-35Zm34,1h-33V98h33Z" style="fill: #a97c50"/>
        </g>
        <g>
          <rect x="260" y="0.5" width="34" height="98" style="fill: #d89335"/>
          <path d="M259.5,0h35V99h-35Zm34,1h-33V98h33Z" style="fill: #a97c50"/>
        </g>
        <g>
          <rect x="192" y="0.5" width="34" height="98" style="fill: #d89335"/>
          <path d="M191.5,0h35V99h-35Zm34,1h-33V98h33Z" style="fill: #a97c50"/>
        </g>
        <g>
          <rect x="90" y="0.5" width="34" height="98" style="fill: #e8a23d"/>
          <path d="M89.5,0h35V99h-35Zm34,1h-33V98h33Z" style="fill: #a97c50"/>
        </g>
        <g>
          <rect x="158" y="0.5" width="34" height="98" style="fill: #f9b546"/>
          <path d="M157.5,0h35V99h-35Zm34,1h-33V98h33Z" style="fill: #a97c50"/>
        </g>
      </g>
      <g>
        <polygon points="268.8 257.6 260 301.9 251.2 257.6 268.8 257.6" style="fill: #c42128"/>
        <polygon points="336.8 189.6 328 233.9 319.2 189.6 336.8 189.6" style="fill: #c42128"/>
        <polygon points="200.3 189.6 191.5 233.9 182.7 189.6 200.3 189.6" style="fill: #c42128"/>
        <polygon points="404.3 106.4 395.5 150.6 386.7 106.4 404.3 106.4" style="fill: #c42128"/>
        <polygon points="132.3 106.4 123.5 150.6 114.7 106.4 132.3 106.4" style="fill: #c42128"/>
      </g>
      <g>
        <rect x="464.5" y="0.5" width="13.8" height="980.5" style="fill: #455a66"/>
        <rect x="506.7" y="0.5" width="13.8" height="980.5" style="fill: #455a66"/>
        <rect x="478.3" y="0.5" width="28.4" height="980.5" style="fill: #364750"/>
      </g>
      <g>
        <rect y="0.5" width="13.8" height="980.5" style="fill: #455a66"/>
        <rect x="42.2" y="0.5" width="13.8" height="980.5" style="fill: #455a66"/>
        <rect x="13.8" y="0.5" width="28.4" height="980.5" style="fill: #364750"/>
      </g>
      <g>
        <g>
          <g>
            <circle cx="367.1" cy="930" r="22" style="fill: #f1f2f2"/>
            <circle cx="367.1" cy="930" r="7.4" style="fill: #fff"/>
            <path d="M367.1,914.5A15.5,15.5,0,1,1,351.6,930,15.5133,15.5133,0,0,1,367.1,914.5Zm0,26.7a11.3,11.3,0,1,0-11.3-11.3A11.3527,11.3527,0,0,0,367.1,941.2Z" style="fill: #c42128"/>
          </g>
          <g>
            <circle cx="295.7" cy="930" r="22" style="fill: #f1f2f2"/>
            <circle cx="295.7" cy="930" r="7.4" style="fill: #fff"/>
            <path d="M295.7,914.5A15.5,15.5,0,1,1,280.2,930,15.5133,15.5133,0,0,1,295.7,914.5Zm0,26.7a11.3,11.3,0,1,0-11.3-11.3A11.3527,11.3527,0,0,0,295.7,941.2Z" style="fill: #c42128"/>
          </g>
          <g>
            <circle cx="224.3" cy="930" r="22" style="fill: #f1f2f2"/>
            <circle cx="224.3" cy="930" r="7.4" style="fill: #fff"/>
            <path d="M224.3,914.5A15.5,15.5,0,1,1,208.8,930,15.5133,15.5133,0,0,1,224.3,914.5Zm0,26.7A11.3,11.3,0,1,0,213,929.9,11.3527,11.3527,0,0,0,224.3,941.2Z" style="fill: #c42128"/>
          </g>
          <g>
            <circle cx="152.9" cy="930" r="22" style="fill: #f1f2f2"/>
            <circle cx="152.9" cy="930" r="7.4" style="fill: #fff"/>
            <path d="M152.9,914.5A15.5,15.5,0,1,1,137.4,930,15.5133,15.5133,0,0,1,152.9,914.5Zm0,26.7a11.3,11.3,0,1,0-11.3-11.3A11.3527,11.3527,0,0,0,152.9,941.2Z" style="fill: #c42128"/>
          </g>
        </g>
        <g>
          <g>
            <circle cx="331.4" cy="870.6" r="22" style="fill: #f1f2f2"/>
            <circle cx="331.4" cy="870.6" r="7.4" style="fill: #fff"/>
            <path d="M331.4,855.1a15.5,15.5,0,1,1-15.5,15.5A15.5133,15.5133,0,0,1,331.4,855.1Zm0,26.8a11.3,11.3,0,1,0-11.3-11.3A11.3527,11.3527,0,0,0,331.4,881.9Z" style="fill: #c42128"/>
          </g>
          <g>
            <circle cx="260" cy="870.6" r="22" style="fill: #f1f2f2"/>
            <circle cx="260" cy="870.6" r="7.4" style="fill: #fff"/>
            <path d="M260,855.1a15.5,15.5,0,1,1-15.5,15.5A15.5133,15.5133,0,0,1,260,855.1Zm0,26.8a11.3,11.3,0,1,0-11.3-11.3A11.3527,11.3527,0,0,0,260,881.9Z" style="fill: #c42128"/>
          </g>
          <g>
            <circle cx="188.6" cy="870.6" r="22" style="fill: #f1f2f2"/>
            <circle cx="188.6" cy="870.6" r="7.4" style="fill: #fff"/>
            <path d="M188.6,855.1a15.5,15.5,0,1,1-15.5,15.5A15.5133,15.5133,0,0,1,188.6,855.1Zm0,26.8a11.3,11.3,0,1,0-11.3-11.3A11.3527,11.3527,0,0,0,188.6,881.9Z" style="fill: #c42128"/>
          </g>
        </g>
        <g>
          <g>
            <circle cx="295.7" cy="811.2" r="22" style="fill: #f1f2f2"/>
            <circle cx="295.7" cy="811.2" r="7.4" style="fill: #fff"/>
            <path d="M295.7,795.7a15.5,15.5,0,1,1-15.5,15.5A15.5133,15.5133,0,0,1,295.7,795.7Zm0,26.8a11.3,11.3,0,1,0-11.3-11.3A11.3527,11.3527,0,0,0,295.7,822.5Z" style="fill: #c42128"/>
          </g>
          <g>
            <circle cx="224.3" cy="811.2" r="22" style="fill: #f1f2f2"/>
            <circle cx="224.3" cy="811.2" r="7.4" style="fill: #fff"/>
            <path d="M224.3,795.7a15.5,15.5,0,1,1-15.5,15.5A15.5133,15.5133,0,0,1,224.3,795.7Zm0,26.8A11.3,11.3,0,1,0,213,811.2,11.3527,11.3527,0,0,0,224.3,822.5Z" style="fill: #c42128"/>
          </g>
        </g>
        <g>
          <circle cx="260" cy="751.8" r="22" style="fill: #f1f2f2"/>
          <circle cx="260" cy="751.8" r="7.4" style="fill: #fff"/>
          <path d="M260,736.3a15.5,15.5,0,1,1-15.5,15.5A15.5133,15.5133,0,0,1,260,736.3Zm0,26.8a11.3,11.3,0,1,0-11.3-11.3A11.3527,11.3527,0,0,0,260,763.1Z" style="fill: #c42128"/>
        </g>
      </g>
    </g>
  </g>
</svg>
